#!OML:ASF G:\JayActor3\Patient Classification 1\Patient 1\Session 6\male.ASF
:FULLY-SPECIFIED
:DEGREES
1514
root -4.38622 16.5524 -4.55137 144.823 -79.8711 -137.745
lowerback -3.74752 -3.36715 4.47487
upperback -4.33068 -4.72446 4.59027
thorax -2.34034 -2.50648 2.16204
lowerneck -0.39229 -5.15914 -0.39871
upperneck -7.73102 -7.03525 -0.0104948
head -2.34873 -3.54013 0.200162
rclavicle -4.89507e-014 -1.66979e-014
rhumerus -39.7003 1.56758 -77.1202
rradius 32.6117
rwrist 0.153254
rhand -15.6384 -6.42206
rfingers 7.12502
rthumb 10.549 -36.1373
lclavicle -4.89507e-014 -1.66979e-014
lhumerus -78.5846 42.308 28.0469
lradius 7.92313
lwrist -19.1835
lhand -6.75682 9.80391
lfingers 7.12502
lthumb 19.1047 38.8856
rfemur -12.2981 7.04818 20.7151
rtibia 30.0096
rfoot -14.9632 6.09221
rtoes 9.90088
lfemur 3.24543 6.79787 -9.02187
ltibia 16.9643
lfoot -22.1062 25.7374
ltoes -1.8719
1515
root -4.39515 16.5539 -4.50852 146.557 -79.334 -139.392
lowerback -3.80666 -3.45759 4.19518
upperback -4.48889 -4.84103 4.56096
thorax -2.44966 -2.56209 2.28808
lowerneck -0.636125 -4.85253 -0.232664
upperneck -7.22647 -6.62414 -0.286
head -2.15551 -3.33244 0.0626563
rclavicle 2.99171e-014 3.22031e-014
rhumerus -39.8336 1.175 -77.435
rradius 33.0597
rwrist 0.20126
rhand -15.6995 -6.25554
rfingers 7.12502
rthumb 10.4901 -35.9738
lclavicle 2.99171e-014 3.22031e-014
lhumerus -83.0081 43.0792 21.5134
lradius 7.69292
lwrist -24.1413
lhand -6.31769 9.91252
lfingers 7.12502
lthumb 19.5269 38.9519
rfemur -12.6145 7.40481 20.5837
rtibia 30.2038
rfoot -14.6203 6.35481
rtoes 9.93267
lfemur 3.705 6.46722 -9.19132
ltibia 16.3319
lfoot -22.4268 26.1621
ltoes -1.33024
1516
root -4.40359 16.5552 -4.465 148.199 -78.7994 -140.93
lowerback -3.9047 -3.55122 3.91123
upperback -4.63723 -4.96526 4.52512
thorax -2.52624 -2.6207 2.40614
lowerneck -0.87816 -4.54064 -0.0678214
upperneck -6.73985 -6.2057 -0.546667
head -1.96795 -3.12189 -0.0669755
rclavicle 9.97402e-014 -7.95139e-016
rhumerus -39.9124 0.783861 -77.7408
rradius 33.4506
rwrist 0.205654
rhand -15.6818 -6.10207
rfingers 7.12502
rthumb 10.5072 -35.8195
lclavicle 9.97402e-014 -7.95139e-016
lhumerus -87.5753 43.4547 14.8327
lradius 7.52568
lwrist -29.2332
lhand -5.89621 9.76136
lfingers 7.12502
lthumb 19.9321 38.7592
rfemur -12.9615 7.75057 20.428
rtibia 30.407
rfoot -14.2723 6.62396
rtoes 9.94607
lfemur 4.12456 5.92618 -9.42672
ltibia 15.7462
lfoot -22.8649 26.7231
ltoes -0.766887
1517
root -4.41188 16.5555 -4.42052 149.682 -78.2597 -142.293
lowerback -4.04363 -3.64672 3.64588
upperback -4.77316 -5.09586 4.48847
thorax -2.56781 -2.68251 2.50903
lowerneck -1.12258 -4.22691 0.0938058
upperneck -6.27255 -5.78493 -0.795578
head -1.78572 -2.91084 -0.189562
rclavicle -1.94312e-014 -3.29983e-014
rhumerus -39.9263 0.418844 -78.0392
rradius 33.7644
rwrist 0.146661
rhand -15.5894 -5.92159
rfingers 7.12502
rthumb 10.5962 -35.6345
lclavicle -1.94312e-014 -3.29983e-014
lhumerus -92.17 43.4415 8.11073
lradius 7.35892
lwrist -34.4369
lhand -5.58258 9.32914
lfingers 7.12502
lthumb 20.2336 38.2953
rfemur -13.3358 8.09406 20.2677
rtibia 30.6204
rfoot -13.9346 6.89269
rtoes 9.93793
lfemur 4.49715 5.1851 -9.71025
ltibia 15.2287
lfoot -23.4786 27.3972
ltoes -0.118718
1518
root -4.42005 16.5544 -4.37464 150.999 -77.7132 -143.475
lowerback -4.2151 -3.74404 3.40771
upperback -4.89889 -5.232 4.45491
thorax -2.58188 -2.74763 2.59656
lowerneck -1.36837 -3.91077 0.249784
upperneck -5.82532 -5.36119 -1.03362
head -1.60913 -2.69886 -0.305146
rclavicle 5.64051e-014 -9.93923e-015
rhumerus -39.8926 0.0942653 -78.3285
rradius 34.0238
rwrist 0.00407983
rhand -15.4093 -5.72355
rfingers 7.12502
rthumb 10.77 -35.4274
lclavicle 5.64051e-014 -9.93923e-015
lhumerus -96.6975 43.0574 1.43104
lradius 7.13746
lwrist -39.7511
lhand -5.41667 8.63973
lfingers 7.12502
lthumb 20.393 37.5889
rfemur -13.7375 8.43127 20.1092
rtibia 30.8449
rfoot -13.6052 7.16193
rtoes 9.90195
lfemur 4.8095 4.30645 -10.0285
ltibia 14.8005
lfoot -24.2611 28.1562
ltoes 0.570862
1519
root -4.42802 16.5514 -4.32688 152.17 -77.1644 -144.501
lowerback -4.40676 -3.84104 3.19782
upperback -5.02068 -5.36975 4.42541
thorax -2.5821 -2.81439 2.67034
lowerneck -1.58515 -3.59612 0.391396
upperneck -5.40733 -4.93972 -1.26312
head -1.44609 -2.48809 -0.412488
rclavicle -3.7297e-014 -3.45885e-014
rhumerus -39.8394 -0.166845 -78.6068
rradius 34.2445
rwrist -0.243084
rhand -15.1345 -5.53705
rfingers 7.12502
rthumb 11.035 -35.227
lclavicle -3.7297e-014 -3.45885e-014
lhumerus -101.072 42.3112 -5.11824
lradius 6.82827
lwrist -45.1764
lhand -5.45037 7.7726
lfingers 7.12502
lthumb 20.3606 36.7253
rfemur -14.1579 8.75763 19.949
rtibia 31.0803
rfoot -13.2907 7.431
rtoes 9.80947
lfemur 5.06069 3.36343 -10.3735
ltibia 14.4723
lfoot -25.2102 28.9446
ltoes 1.29483
1520
root -4.43559 16.546 -4.27683 153.193 -76.6196 -145.382
lowerback -4.59636 -3.93756 3.01698
upperback -5.13755 -5.50737 4.40029
thorax -2.5801 -2.88191 2.73203
lowerneck -1.78577 -3.28522 0.52822
upperneck -5.01646 -4.52402 -1.49546
head -1.29412 -2.28044 -0.51736
rclavicle -1.68967e-015 -4.17448e-014
rhumerus -39.7771 -0.350496 -78.8764
rradius 34.4289
rwrist -0.617795
rhand -14.8137 -5.38492
rfingers 7.12502
rthumb 11.3445 -35.0581
lclavicle -1.68967e-015 -4.17448e-014
lhumerus -105.224 41.2524 -11.4732
lradius 6.40011
lwrist -50.7176
lhand -5.71924 6.81257
lfingers 7.12502
lthumb 20.1022 35.7926
rfemur -14.5804 9.0702 19.7859
rtibia 31.3232
rfoot -12.9966 7.70576
rtoes 9.69087
lfemur 5.25591 2.43275 -10.7313
ltibia 14.2479
lfoot -26.2977 29.7038
ltoes 2.03094
1521
root -4.44205 16.5383 -4.22434 154.085 -76.0901 -146.143
lowerback -4.7589 -4.03599 2.85378
upperback -5.25288 -5.6462 4.3799
thorax -2.5923 -2.95046 2.79055
lowerneck -1.96868 -2.97843 0.654931
upperneck -4.65097 -4.11412 -1.72656
head -1.15247 -2.07587 -0.618026
rclavicle 2.07978e-014 1.70955e-014
rhumerus -39.7269 -0.454108 -79.1368
rradius 34.5987
rwrist -1.1137
rhand -14.454 -5.31008
rfingers 7.12502
rthumb 11.6913 -34.9639
lclavicle 2.07978e-014 1.70955e-014
lhumerus -109.122 39.9286 -17.5986
lradius 5.85069
lwrist -56.3635
lhand -6.22759 5.84105
lfingers 7.12502
lthumb 19.6136 34.8717
rfemur -14.9935 9.36972 19.6141
rtibia 31.5662
rfoot -12.7219 7.9836
rtoes 9.56634
lfemur 5.39509 1.5801 -11.0926
ltibia 14.1245
lfoot -27.4831 30.3756
ltoes 2.77347
1522
root -4.44712 16.528 -4.16918 154.811 -75.5809 -146.752
lowerback -4.88277 -4.13651 2.71716
upperback -5.36439 -5.78625 4.366
thorax -2.62357 -3.02022 2.84385
lowerneck -2.15258 -2.68147 0.777172
upperneck -4.30072 -3.71773 -1.96194
head -1.01502 -1.87846 -0.717788
rclavicle 1.50331e-014 -1.59028e-015
rhumerus -39.6818 -0.48392 -79.3847
rradius 34.7454
rwrist -1.71843
rhand -14.1183 -5.27124
rfingers 7.12502
rthumb 12.0151 -34.9064
lclavicle 1.50331e-014 -1.59028e-015
lhumerus -112.759 38.4023 -23.4832
lradius 5.19362
lwrist -62.1002
lhand -6.98951 4.91703
lfingers 7.12502
lthumb 18.8809 34.0207
rfemur -15.3838 9.64934 19.4424
rtibia 31.7993
rfoot -12.4648 8.27071
rtoes 9.45888
lfemur 5.47955 0.828478 -11.4373
ltibia 14.0968
lfoot -28.696 30.9558
ltoes 3.45734
1523
root -4.45078 16.5153 -4.11144 155.324 -75.094 -147.165
lowerback -4.96456 -4.24122 2.61773
upperback -5.46444 -5.93064 4.36093
thorax -2.66868 -3.09286 2.88848
lowerneck -2.35427 -2.39493 0.894786
upperneck -3.96032 -3.33526 -2.19239
head -0.87697 -1.6887 -0.814289
rclavicle 1.40143e-014 -1.39149e-015
rhumerus -39.628 -0.456171 -79.6167
rradius 34.8531
rwrist -2.36868
rhand -13.8303 -5.27433
rfingers 7.12502
rthumb 12.2928 -34.893
lclavicle 1.40143e-014 -1.39149e-015
lhumerus -116.17 36.7323 -29.1462
lradius 4.47401
lwrist -67.8946
lhand -7.99288 4.14059
lfingers 7.12502
lthumb 17.9157 33.3354
rfemur -15.7401 9.90759 19.2861
rtibia 32.0148
rfoot -12.2213 8.56648
rtoes 9.41212
lfemur 5.51828 0.175198 -11.7441
ltibia 14.1531
lfoot -29.9197 31.4263
ltoes 4.12727
1524
root -4.45265 16.5006 -4.05126 155.658 -74.6284 -147.416
lowerback -5.00385 -4.34876 2.5477
upperback -5.54645 -6.07729 4.36347
thorax -2.72052 -3.16693 2.92734
lowerneck -2.59035 -2.1195 1.01169
upperneck -3.62271 -2.96758 -2.4148
head -0.733383 -1.50726 -0.907603
rclavicle 6.2816e-014 -2.78299e-015
rhumerus -39.5622 -0.396315 -79.828
rradius 34.9345
rwrist -3.01587
rhand -13.61 -5.31249
rfingers 7.12502
rthumb 12.5052 -34.9183
lclavicle 6.2816e-014 -2.78299e-015
lhumerus -119.407 34.9697 -34.6181
lradius 3.76571
lwrist -73.7161
lhand -9.15373 3.63834
lfingers 7.12502
lthumb 16.7984 32.9317
rfemur -16.0623 10.1432 19.1437
rtibia 32.212
rfoot -11.9803 8.87577
rtoes 9.43388
lfemur 5.52501 -0.419097 -12.0202
ltibia 14.2724
lfoot -31.159 31.8129
ltoes 4.826
1525
root -4.45302 16.4838 -3.989 155.863 -74.1874 -147.564
lowerback -5.00761 -4.45758 2.49125
upperback -5.60337 -6.22382 4.36868
thorax -2.76683 -3.24055 2.96307
lowerneck -2.85741 -1.85698 1.12816
upperneck -3.29124 -2.61717 -2.6244
head -0.58579 -1.33537 -0.996366
rclavicle -4.41053e-015 -2.10712e-014
rhumerus -39.4713 -0.326963 -80.011
rradius 34.9572
rwrist -3.6066
rhand -13.4957 -5.34721
rfingers 7.12502
rthumb 12.6153 -34.9463
lclavicle -4.41053e-015 -2.10712e-014
lhumerus -122.53 33.1478 -39.9262
lradius 3.15726
lwrist -79.5031
lhand -10.3991 3.45078
lfingers 7.12502
lthumb 15.5993 32.8418
rfemur -16.3468 10.3688 19.0052
rtibia 32.4013
rfoot -11.7512 9.18802
rtoes 9.51404
lfemur 5.52431 -0.991114 -12.2868
ltibia 14.4248
lfoot -32.3994 32.1612
ltoes 5.55122
1526
root -4.45211 16.4657 -3.92511 156.06 -73.7765 -147.735
lowerback -4.97931 -4.56665 2.40971
upperback -5.63217 -6.36752 4.36807
thorax -2.79938 -3.31095 3.00764
lowerneck -3.16704 -1.60219 1.23921
upperneck -2.95159 -2.27642 -2.80966
head -0.427435 -1.16923 -1.07639
rclavicle 1.74309e-014 4.82053e-014
rhumerus -39.3643 -0.274805 -80.1591
rradius 34.9361
rwrist -4.08658
rhand -13.4784 -5.39521
rfingers 7.12502
rthumb 12.632 -34.9932
lclavicle 1.74309e-014 4.82053e-014
lhumerus -125.605 31.2782 -45.0967
lradius 2.74815
lwrist -85.198
lhand -11.6307 3.55284
lfingers 7.12502
lthumb 14.4129 33.0324
rfemur -16.6053 10.5893 18.8383
rtibia 32.6024
rfoot -11.539 9.49739
rtoes 9.58248
lfemur 5.54154 -1.58298 -12.5918
ltibia 14.575
lfoot -33.6651 32.5076
ltoes 6.34605
1527
root -4.44953 16.4467 -3.8602 156.353 -73.3928 -148.035
lowerback -4.91801 -4.6684 2.27029
upperback -5.64295 -6.49722 4.35422
thorax -2.82665 -3.37159 3.07246
lowerneck -3.47973 -1.35851 1.34363
upperneck -2.61297 -1.94973 -2.97426
head -0.267784 -1.01049 -1.14827
rclavicle -3.4601e-014 4.27387e-015
rhumerus -39.2573 -0.255081 -80.2647
rradius 34.8555
rwrist -4.43451
rhand -13.5594 -5.45827
rfingers 7.12502
rthumb 12.5539 -35.0611
lclavicle -3.4601e-014 4.27387e-015
lhumerus -128.653 29.3481 -50.1227
lradius 2.61934
lwrist -90.733
lhand -12.7926 3.8753
lfingers 7.12502
lthumb 13.2931 33.4314
rfemur -16.8607 10.8286 18.618
rtibia 32.8394
rfoot -11.3467 9.78306
rtoes 9.58985
lfemur 5.58688 -2.2298 -12.9749
ltibia 14.6882
lfoot -34.9212 32.952
ltoes 7.13567
